<?xml version="1.0" standalone="no"?>
<!DOCTYPE svg PUBLIC "-//W3C//DTD SVG 20010904//EN"
 "http://www.w3.org/TR/2001/REC-SVG-20010904/DTD/svg10.dtd">
<svg version="1.0" xmlns="http://www.w3.org/2000/svg"
 width="500.000000pt" height="500.000000pt" viewBox="0 0 500.000000 500.000000"
 preserveAspectRatio="xMidYMid meet">
<metadata>
Created by potrace 1.14, written by Peter Selinger 2001-2017
</metadata>
<g transform="translate(0.000000,500.000000) scale(0.100000,-0.100000)"
fill="#000000" stroke="none">
<path d="M1438 3680 c-16 -13 -18 -33 -19 -167 l0 -153 -58 0 c-61 0 -81 -11
-81 -46 0 -32 22 -45 82 -47 l53 -2 3 -96 3 -95 -62 -1 c-66 0 -94 -18 -82
-51 13 -35 26 -42 84 -42 l59 0 0 -98 0 -98 -49 1 c-70 2 -91 -8 -91 -44 0
-38 23 -51 89 -51 l51 0 0 -95 0 -95 -58 0 c-62 0 -82 -11 -82 -45 0 -37 14
-45 78 -47 l62 -2 0 -98 0 -98 -64 0 c-66 0 -76 -6 -76 -50 0 -28 23 -40 84
-41 l57 -2 -3 -96 -3 -96 -59 -1 c-61 -2 -76 -11 -76 -50 0 -33 20 -44 82 -44
l58 0 0 -154 c0 -185 -3 -180 111 -180 l79 0 0 -76 c0 -126 -94 -113 815 -112
548 1 791 4 799 12 7 7 11 201 11 629 l0 619 243 242 c173 172 242 247 242
264 0 30 -204 236 -234 236 -14 0 -60 -39 -131 -110 -60 -60 -112 -110 -115
-110 -3 0 -6 88 -6 195 0 138 -3 198 -11 206 -8 8 -45 13 -95 13 l-83 1 -1 83
c-1 46 -7 89 -13 95 -8 8 -236 11 -793 11 -681 1 -784 -1 -800 -14z m1076
-1613 c25 -22 16 -31 -50 -50 l-51 -15 13 46 c26 86 16 83 88 19z"/>
</g>
</svg>
